<svg xmlns="http://www.w3.org/2000/svg" viewBox="0 0 1440 320"><path fill="#000000" fill-opacity="1" d="M0,128L26.7,112C53.3,96,107,64,160,58.7C213.3,53,267,75,320,101.3C373.3,128,427,160,480,154.7C533.3,149,587,107,640,90.7C693.3,75,747,85,800,80C853.3,75,907,53,960,90.7C1013.3,128,1067,224,1120,261.3C1173.3,299,1227,277,1280,245.3C1333.3,213,1387,171,1413,149.3L1440,128L1440,0L1413.3,0C1386.7,0,1333,0,1280,0C1226.7,0,1173,0,1120,0C1066.7,0,1013,0,960,0C906.7,0,853,0,800,0C746.7,0,693,0,640,0C586.7,0,533,0,480,0C426.7,0,373,0,320,0C266.7,0,213,0,160,0C106.7,0,53,0,27,0L0,0Z"></path></svg>